<svg xmlns="http://www.w3.org/2000/svg" viewBox="0 0 100 100"><defs><style>.cls-1{fill:#d38766;}.cls-2{fill:none;}.cls-3{fill:#b3b3b3;opacity:0.35;}.cls-4{opacity:0.3;}.cls-5{fill:#724f44;}</style></defs><title>šap</title><g id="Layer_1" data-name="Layer 1"><path class="cls-1" d="M87.59,17A5.24,5.24,0,0,0,87,17a5.24,5.24,0,0,1,.59,0A50,50,0,1,0,100,50,49.87,49.87,0,0,0,87.59,17Z"/><path class="cls-2" d="M87.59,17A50,50,0,1,0,100,50,49.87,49.87,0,0,0,87.59,17Z"/></g><g id="Layer_2" data-name="Layer 2"><path class="cls-3" d="M42.16,100.24l-8.67-3"/><g class="cls-4"><path d="M43.19,52.14a18.36,18.36,0,0,1,19.56-3.7,37.51,37.51,0,0,1,9.72,5.95c5.15,4.36,12,12.9,6.79,19.89-2.72,3.64-8.62,4.91-12.6,3.53-2.77-1-4.52-1.81-6.87-.94-1.77.66-2,1.81-4.5,4.39-1.91,2-3.91,4-6.54,5-3.07,1.15-7.53,1-10.5-1.41-3.6-2.95-3.42-8-3.31-12.28C35.09,66.07,37.92,57.34,43.19,52.14Z"/></g><path class="cls-5" d="M41.19,51.14a18.36,18.36,0,0,1,19.56-3.7,37.51,37.51,0,0,1,9.72,5.95c5.15,4.36,12,12.9,6.79,19.89-2.72,3.64-8.62,4.91-12.6,3.53-2.77-1-4.52-1.81-6.87-.94-1.77.66-2,1.81-4.5,4.39-1.91,2-3.91,4-6.54,5-3.07,1.15-7.53,1-10.5-1.41-3.6-2.95-3.42-8-3.31-12.28C33.09,65.07,35.92,56.34,41.19,51.14Z"/><g class="cls-4"><ellipse cx="27.86" cy="54.32" rx="6.55" ry="9" transform="translate(-18.93 15.11) rotate(-22.88)"/></g><ellipse class="cls-5" cx="25.86" cy="53.32" rx="6.55" ry="9" transform="translate(-18.7 14.25) rotate(-22.88)"/><g class="cls-4"><ellipse cx="37.72" cy="36.42" rx="8.53" ry="11.82" transform="translate(-11.19 17.53) rotate(-22.88)"/></g><ellipse class="cls-5" cx="35.72" cy="35.42" rx="8.53" ry="11.82" transform="translate(-10.96 16.68) rotate(-22.88)"/><g class="cls-4"><ellipse cx="56.82" cy="30.76" rx="8.53" ry="11.82" transform="translate(-4.39 10.08) rotate(-9.76)"/></g><ellipse class="cls-5" cx="54.82" cy="29.76" rx="8.53" ry="11.82" transform="translate(-4.25 9.73) rotate(-9.76)"/><g class="cls-4"><ellipse cx="74.41" cy="41.19" rx="6.55" ry="9" transform="translate(-3.71 7.55) rotate(-5.67)"/></g><ellipse class="cls-5" cx="72.41" cy="40.19" rx="6.55" ry="9" transform="translate(-3.62 7.35) rotate(-5.67)"/></g></svg>