<svg xmlns="http://www.w3.org/2000/svg" viewBox="0 0 100 100"><defs><style>.cls-1{fill:#e5d87f;}.cls-2{fill:none;}.cls-3{fill:#b3b3b3;opacity:0.35;}.cls-4{opacity:0.3;}.cls-5{fill:#69935f;}.cls-6{fill:#3e493b;}.cls-7{fill:#e2e2e2;}</style></defs><title>zdjel</title><g id="Layer_1" data-name="Layer 1"><path class="cls-1" d="M87.59,17A5.24,5.24,0,0,0,87,17a5.24,5.24,0,0,1,.59,0A50,50,0,1,0,100,50,49.87,49.87,0,0,0,87.59,17Z"/><path class="cls-2" d="M87.59,17A50,50,0,1,0,100,50,49.87,49.87,0,0,0,87.59,17Z"/></g><g id="Layer_2" data-name="Layer 2"><path class="cls-3" d="M42.16,100.24l-8.67-3"/><g class="cls-4"><path d="M67.67,57.61c.82-1.38.31-3.21-2.37-10.12-1-2.48-1.92-5.77-3.9-7.65-2.55-2.42-6.88-3.21-10.23-3.58a131.83,131.83,0,0,0-15.92-.91c-17.75.41-21.52,3-22.76,4.21a20.28,20.28,0,0,0-4.25,6.13c-.1.28-.46,1.25-.85,2.37s-.66,2-1.3,3.77a23.27,23.27,0,0,0-1,3.44,7.3,7.3,0,0,0-.24,1.66c.22,2.16,4.49,3.49,6.41,4A60.33,60.33,0,0,0,23.8,63.17c10.85.54,16.41.86,23.12.22a81.48,81.48,0,0,0,11.37-1.86C61,60.87,66.06,60.31,67.67,57.61Z"/></g><path class="cls-5" d="M70.67,56.61c.82-1.38.31-3.21-2.37-10.12-1-2.48-1.92-5.77-3.9-7.65-2.55-2.42-6.88-3.21-10.23-3.58a131.83,131.83,0,0,0-15.92-.91c-17.75.41-21.52,3-22.76,4.21a20.28,20.28,0,0,0-4.25,6.13c-.1.28-.46,1.25-.85,2.37s-.66,2-1.3,3.77a23.27,23.27,0,0,0-1,3.44,7.3,7.3,0,0,0-.24,1.66c.22,2.16,4.49,3.49,6.41,4A60.33,60.33,0,0,0,26.8,62.17c10.85.54,16.41.86,23.12.22a81.48,81.48,0,0,0,11.37-1.86C64,59.87,69.06,59.31,70.67,56.61Z"/><ellipse class="cls-6" cx="39.79" cy="39.28" rx="21.85" ry="2.73"/><g class="cls-4"><path d="M38.7,61.85c5.85-.4,11.91-2.21,17.66-3.43q4.56-1,9.11-2l4.55-1c.61-.14,4.33-.57,4.54-1.08a5.36,5.36,0,0,1,1.86-2.38,5,5,0,0,1,4.09-.8,4.23,4.23,0,0,1,2.94,3,3.71,3.71,0,0,1-1.52,4c2.37.28,5,.74,6.41,2.83a5.8,5.8,0,0,1-.6,6.57c-.16.19-2.1,3-5,2.59a5.34,5.34,0,0,1-3.51-2.34c-1.35-2.14-.24-3.92-1.34-5s-3.05-.18-6.33.84c-2.75.86-5.6,1.32-8.38,2.11-5.45,1.54-10.85,3.3-16.37,4.55a3.36,3.36,0,0,0-1.65.71c-1.05,1-1.17,2.34-1.53,3.5-.7,2.32-2.9,4.68-5.23,5a6.21,6.21,0,0,1-6.47-5.21,6,6,0,0,1,3.41-6c-.61-.45-1.26-.15-1.93.09-1.11.39-3.16-1.18-3.91-3.18a7.15,7.15,0,0,1,3.71-8.22C36.9,55.62,39.86,57.54,38.7,61.85Z"/></g><path class="cls-7" d="M41.7,60.85c5.85-.4,11.91-2.21,17.66-3.43q4.56-1,9.11-2l4.55-1c.61-.14,4.33-.57,4.54-1.08a5.36,5.36,0,0,1,1.86-2.38,5,5,0,0,1,4.09-.8,4.23,4.23,0,0,1,2.94,3,3.71,3.71,0,0,1-1.52,4c2.37.28,5,.74,6.41,2.83a5.8,5.8,0,0,1-.6,6.57c-.16.19-2.1,3-5,2.59a5.34,5.34,0,0,1-3.51-2.34c-1.35-2.14-.24-3.92-1.34-5s-3.05-.18-6.33.84c-2.75.86-5.6,1.32-8.38,2.11-5.45,1.54-10.85,3.3-16.37,4.55a3.36,3.36,0,0,0-1.65.71c-1.05,1-1.17,2.34-1.53,3.5-.7,2.32-2.9,4.68-5.23,5a6.21,6.21,0,0,1-6.47-5.21,6,6,0,0,1,3.41-6c-.61-.45-1.26-.15-1.93.09-1.11.39-3.16-1.18-3.91-3.18a6.2,6.2,0,0,1,.31-4.57,6.21,6.21,0,0,1,3.4-3.65C39.9,54.62,42.86,56.54,41.7,60.85Z"/></g></svg>